<svg id="Layer_1" data-name="Layer 1" xmlns="http://www.w3.org/2000/svg" xmlns:xlink="http://www.w3.org/1999/xlink" viewBox="0 0 24 24"><defs><style>.cls-1{fill:none;}.cls-2{fill:#ccc;}.cls-3{clip-path:url(#clip-path);}</style><clipPath id="clip-path"><circle class="cls-1" cx="12" cy="12" r="12"/></clipPath></defs><circle class="cls-2" cx="12" cy="12" r="12"/><g class="cls-3"><path d="M16.81,24H7.18V21.83l.37-.1a4.58,4.58,0,0,0,3.38-4.37c0-.52,0-1,0-1.56,0-.07.07-.2.13-.22l2-.5v.37c0,.83,0,1.67.06,2.5a4.48,4.48,0,0,0,3.45,3.81c.21,0,.26.13.26.33C16.8,22.72,16.81,23.35,16.81,24Z"/><path d="M13.05,7.57c0,.67,0,1.3,0,1.93a.24.24,0,0,1-.14.17l-2,.49V8.09Z"/><path d="M10.94,6.41V4.34L13,3.81V5.88Z"/><path d="M13.05,11.33c0,.67,0,1.29,0,1.9a.28.28,0,0,1-.15.2l-2,.49V11.85Z"/><path d="M12,0l.93,2.15L11,2.64l-.08-.05C11.22,1.73,11.62.9,12,0Z"/></g></svg>