<svg xmlns="http://www.w3.org/2000/svg" xmlns:xlink="http://www.w3.org/1999/xlink" viewBox="0 0 32 32"><defs><style>.cls-1{fill:none;}.cls-2{fill:#999;}.cls-3{clip-path:url(#clip-path);}</style><clipPath id="clip-path"><circle class="cls-1" cx="16" cy="16" r="16"/></clipPath></defs><g id="Layer_2" data-name="Layer 2"><circle class="cls-2" cx="16" cy="16" r="16"/></g><g id="Layer_1" data-name="Layer 1"><g class="cls-3"><path d="M22.41,32H9.58V29.11l.49-.13a6.11,6.11,0,0,0,4.5-5.84c0-.69,0-1.38,0-2.07,0-.1.09-.27.17-.29.86-.23,1.73-.44,2.65-.67v.49c0,1.11,0,2.23.08,3.33A6,6,0,0,0,22.08,29c.27.06.35.16.34.43C22.4,30.29,22.41,31.14,22.41,32Z"/><path d="M17.4,10.09c0,.9,0,1.74,0,2.57a.31.31,0,0,1-.2.23c-.85.23-1.7.44-2.59.66V10.79Z"/><path d="M14.59,8.54V5.78l2.8-.69V7.84Z"/><path d="M17.4,15.1c0,.9,0,1.72,0,2.54a.35.35,0,0,1-.21.26c-.85.23-1.7.44-2.59.66V15.8Z"/><path d="M16,0l1.24,2.87-2.6.65-.1-.07C15,2.31,15.49,1.2,16,0Z"/></g></g></svg>